<?xml version="1.0" encoding="utf-8"?>
<!-- Uploaded to SVGRepo https://www.svgrepo.com -->
<svg version="1.1" id="Layer_1" xmlns="http://www.w3.org/2000/svg" xmlns:xlink="http://www.w3.org/1999/xlink" x="0px" y="0px"
	 width="260px" height="228px" viewBox="0 0 260 228" enable-background="new 0 0 260 228" xml:space="preserve">
<path d="M128.93,20.714l-5.65-5.65c-4.8,4.8-7.78,11.429-7.78,18.739s2.98,13.939,7.78,18.739l5.65-5.65
	c-3.35-3.36-5.43-7.99-5.43-13.089S125.58,24.074,128.93,20.714z M160.73,15.074l-5.65,5.65c3.34,3.36,5.42,7.98,5.42,13.079
	s-2.08,9.72-5.42,13.079l5.65,5.65c4.8-4.8,7.77-11.429,7.77-18.729S165.53,19.874,160.73,15.074z M115.86,7.645l-5.65-5.65
	C102.05,10.145,97,21.394,97,33.804s5.05,23.659,13.21,31.809l5.65-5.65c-6.71-6.7-10.86-15.959-10.86-26.159
	S109.15,14.344,115.86,7.645z M173.8,2.005l-5.65,5.65c6.7,6.7,10.85,15.949,10.85,26.149s-4.15,19.449-10.85,26.149l5.65,5.65
	c8.15-8.14,13.2-19.399,13.2-31.799S181.95,10.145,173.8,2.005z M54.657,225.995c-15.158,0-27.49-12.331-27.49-27.489
	c0-15.158,12.332-27.489,27.49-27.489c15.158,0,27.49,12.331,27.49,27.489C82.147,213.664,69.815,225.995,54.657,225.995z
	 M54.657,185.016c-7.438,0-13.49,6.051-13.49,13.49c0,7.438,6.052,13.49,13.49,13.49s13.49-6.051,13.49-13.49
	C68.147,191.068,62.096,185.016,54.657,185.016z M205.664,225.995c-15.158,0-27.49-12.331-27.49-27.489
	c0-15.158,12.332-27.489,27.49-27.489s27.49,12.331,27.49,27.489C233.154,213.664,220.822,225.995,205.664,225.995z
	 M205.664,185.016c-7.438,0-13.49,6.051-13.49,13.49c0,7.438,6.052,13.49,13.49,13.49s13.49-6.051,13.49-13.49
	C219.154,191.068,213.103,185.016,205.664,185.016z M66.99,100.001c7.18,0,13,5.82,13,12.999s-5.82,12.999-13,12.999
	s-13-5.82-13-12.999S59.81,100.001,66.99,100.001z M250,174l-0.01-28.051c0-8.84-7.15-15.949-15.99-15.949h-40l-48-51.836V40.724
	c2.389-1.384,4-3.961,4-6.921c0-4.418-3.582-8-8-8s-8,3.582-8,8c0,2.959,1.611,5.537,4,6.921v37.277H54.72
	c-7.45,0-13.92,5.14-15.59,12.399L30,129.999h-4c-8.84,0-16,7.161-16,16.001v28H2v12c0,4.42,3.58,8,8,8h8.219
	c2.25-18.099,17.731-32.222,36.441-32.222c18.71,0,34.13,14.009,36.38,32.109h78.24c2.25-18.099,17.67-32.109,36.38-32.109
	c18.71,0,34.14,14.009,36.39,32.109h7.94c4.42,0,8.01-3.467,8.01-7.886v-12H250z M42,129.999l8.29-36.878
	C50.7,91.301,52.13,90,54,90h48v39.999H42z M114,129.999V90h26.792L177,129.999H114z"/>
</svg>
